<?xml version="1.0" encoding="UTF-8"?>
<svg id="Layer_1" data-name="Layer 1" xmlns="http://www.w3.org/2000/svg" viewBox="0 0 163.46 178.04">
  <g>
    <rect x="52.18" width="2.9" height="159.01" style="fill: #0f0f0f;"/>
    <rect x="104.62" y="19.2" width="2.45" height="158.84" style="fill: #0f0f0f;"/>
    <g>
      <rect x="11.32" y="61.51" width="36.79" height="2.45" style="fill: #0f0f0f;"/>
      <rect x="59.15" y="61.51" width="104.31" height="2.45" style="fill: #0f0f0f;"/>
    </g>
    <g>
      <rect x="111.28" y="113.63" width="39.86" height="2.45" style="fill: #0f0f0f;"/>
      <rect y="113.63" width="52.41" height="2.45" style="fill: #0f0f0f;"/>
      <rect x="54.86" y="113.63" width="45.38" height="2.45" style="fill: #0f0f0f;"/>
    </g>
  </g>
  <path d="M30.5,53.92c-2.61,0-4.9-.59-6.87-1.77-1.97-1.18-3.5-2.84-4.6-4.97-1.1-2.13-1.65-4.63-1.65-7.49s.57-5.5,1.71-7.64c1.14-2.13,2.69-3.77,4.66-4.92,1.97-1.14,4.19-1.72,6.66-1.72,1.58,0,3.06.23,4.44.69,1.38.46,2.61,1.12,3.68,1.98,1.08.86,1.96,1.87,2.64,3.04.69,1.17,1.12,2.47,1.29,3.91h-5.79c-.16-.69-.42-1.32-.77-1.88-.35-.56-.79-1.04-1.32-1.45-.53-.4-1.12-.71-1.8-.93-.67-.22-1.42-.32-2.24-.32-1.52,0-2.84.37-3.95,1.12-1.11.75-1.97,1.81-2.57,3.18-.6,1.37-.9,3.02-.9,4.94s.3,3.53.9,4.91c.6,1.38,1.46,2.44,2.59,3.18,1.12.74,2.46,1.11,4.01,1.11,1.3,0,2.43-.25,3.4-.74.97-.49,1.73-1.18,2.27-2.06.54-.88.82-1.9.82-3.08l1.32.11h-7.35v-4.32h11.6v3.51c0,2.31-.52,4.34-1.57,6.09-1.04,1.74-2.48,3.1-4.31,4.07-1.83.97-3.93,1.46-6.31,1.46Z" style="fill: #0f0f0f;"/>
  <path d="M21.14,101.29v-27.65h11c2.09,0,3.89.37,5.39,1.1,1.5.74,2.66,1.78,3.47,3.14.81,1.35,1.21,2.96,1.21,4.81s-.42,3.4-1.27,4.73c-.85,1.34-2.04,2.36-3.59,3.08-1.55.72-3.38,1.08-5.49,1.08h-7.31v-4.6h7.11c1.04,0,1.92-.17,2.65-.52.73-.35,1.29-.84,1.68-1.48.39-.64.58-1.4.58-2.28s-.2-1.67-.58-2.31c-.39-.64-.95-1.13-1.69-1.48-.74-.35-1.62-.53-2.66-.53h-4.81v22.92h-5.7ZM36.75,101.29l-6.4-12.51h6.03l6.55,12.51h-6.18Z" style="fill: #0f0f0f;"/>
  <path d="M80.74,75.7v27.65h-5.7v-27.65h5.7ZM84.8,103.35h-7.14v-4.82h6.85c1.84,0,3.37-.34,4.58-1.02,1.21-.68,2.12-1.69,2.71-3.03.59-1.34.89-3,.89-4.96s-.3-3.61-.89-4.94c-.59-1.33-1.49-2.33-2.7-3.02-1.21-.68-2.72-1.02-4.54-1.02h-7.03v-4.82h7.38c2.77,0,5.16.56,7.18,1.68,2.02,1.12,3.57,2.71,4.68,4.78,1.1,2.07,1.65,4.52,1.65,7.35s-.55,5.3-1.64,7.38c-1.09,2.07-2.66,3.67-4.69,4.79-2.04,1.12-4.46,1.68-7.28,1.68Z" style="fill: #0f0f0f;"/>
  <path d="M68.08,81.52c-.89,0-1.63-.28-2.22-.83-.59-.56-.88-1.25-.88-2.08s.29-1.52.88-2.07c.59-.55,1.33-.83,2.22-.83s1.63.28,2.23.83c.59.55.89,1.24.89,2.07s-.3,1.52-.89,2.08-1.34.83-2.23.83ZM65.36,103.87v-19.85h5.47v19.85h-5.47Z" style="fill: #0f0f0f;"/>
  <g>
    <path d="M116.19,132.28c-.32,0-.6-.11-.83-.34-.23-.23-.34-.5-.34-.82s.11-.6.34-.82c.23-.22.5-.34.83-.34s.6.11.82.34.34.5.34.82-.11.6-.34.82-.5.34-.82.34Z" style="fill: #0f0f0f;"/>
    <path d="M120.93,121.97v10.19h-2.1v-10.19h2.1ZM122.42,132.16h-2.63v-1.78h2.52c.68,0,1.24-.12,1.69-.38s.78-.62,1-1.12c.22-.49.33-1.1.33-1.83s-.11-1.33-.33-1.82c-.22-.49-.55-.86-1-1.11-.44-.25-1-.38-1.67-.38h-2.59v-1.78h2.72c1.02,0,1.9.21,2.65.62.74.41,1.32,1,1.72,1.76s.61,1.66.61,2.71-.2,1.95-.61,2.72c-.4.76-.98,1.35-1.73,1.76-.75.41-1.64.62-2.68.62Z" style="fill: #0f0f0f;"/>
    <path d="M128.71,132.16v-10.19h7.21v1.78h-5.11v2.39h4.72v1.74h-4.72v2.49h5.11v1.78h-7.21Z" style="fill: #0f0f0f;"/>
    <path d="M140.12,132.16l-3.58-10.19h2.3l1.65,4.95c.19.62.39,1.29.6,2.01.21.73.44,1.52.68,2.38h-.57c.24-.86.46-1.65.66-2.38.2-.72.4-1.39.58-2.01l1.59-4.95h2.27l-3.5,10.19h-2.69Z" style="fill: #0f0f0f;"/>
  </g>
</svg>